# xmcd
#
# Track frame offsets: 
#        182
#        11392
#        21297
#        33472
#        44137
#        57482
#        68942
#        80372
#        91822
#        109157
#
# Disc length: 1628 seconds
#
# Revision: 4
# Processed by: cddbd v1.5.2PL0 Copyright (c) Steve Scherf et al.
# Submitted via: ExactAudioCopyFreeDBPlugin 1.0
#
DISCID=80065a0a
DTITLE=Various Artist - Rare Soul:  Beach Music Classics
DYEAR=1992
DGENRE=Soul
TTITLE0=The Drifters - Come on Over to My Place
TTITLE1=Mary Wells - Dear Lover
TTITLE2=The Clovers - Drive it Home
TTITLE3=The Coasters - Brazil
TTITLE4=The Astors - Candy
TTITLE5=Barbara Lewis - I Remember the Feeling
TTITLE6=Sam and Dave - Soothe Me
TTITLE7=Jackie Moore - Both Ends Against the Middle
TTITLE8=Candi Staton - Victim
TTITLE9=The Sweet Inspirations - Sweet Inspiration
EXTD=
EXTT0=
EXTT1=
EXTT2=
EXTT3=
EXTT4=
EXTT5=
EXTT6=
EXTT7=
EXTT8=
EXTT9=
PLAYORDER=
